<svg version="1.1" width="1em" height="1em" viewBox="0 0 64 64" xmlns="http://www.w3.org/2000/svg"><g transform="matrix(2.4117 0 0 2.4117 -7.0486 -7.731)" fill="none" stroke-width=".81502"><path d="m22.258 8.8h1.6076c3.1008 0 5.6145 2.5137 5.6145 5.6145v0.33002c0 3.1008-2.5137 5.6145-5.6145 5.6145h-1.6076v1.6898c0 1.4311-1.1602 2.5913-2.5913 2.5913h-12.235c-1.4311 0-2.5913-1.1602-2.5913-2.5913v-11.953c0-0.71556 0.58008-1.2956 1.2956-1.2956zm0 2.9968v5.5654h1.4656c1.5368 0 2.7827-1.2459 2.7827-2.7827s-1.2459-2.7827-2.7827-2.7827z" fill="CurrentColor" stroke-width=".68159"/></g><path d="m24.786 26.218c0.96538-2.8246 3.2532-4.2369 6.8635-4.2369 5.4155 0 7.4233 6.7376 4.5844 11.142-1.8924 2.9365-5.7085 6.6505-11.448 11.142-5.7396-4.4916-9.5557-8.2056-11.448-11.142-2.8386-4.4045-0.831-11.142 4.5844-11.142 3.6103 0 5.8981 1.4123 6.8635 4.2369z" fill="#ff5e5b" stroke-width="1.9656"/></svg>
